<svg width="76" height="72" viewBox="0 0 76 72" fill="none" xmlns="http://www.w3.org/2000/svg">
<path d="M74.424 35.422L42.0323 2.94747L39.8612 0.769611C39.3665 0.276662 38.6975 0 38.0002 0C37.3028 0 36.6338 0.276662 36.1391 0.769611L1.57634 35.422C1.06943 35.9285 0.668815 36.5317 0.398135 37.196C0.127456 37.8604 -0.00780139 38.5724 0.00034747 39.29C0.0338792 42.2499 2.49008 44.6127 5.44087 44.6127H9.00361V72H66.9967V44.6127H70.6349C72.0684 44.6127 73.418 44.0494 74.4323 43.0319C74.9318 42.5325 75.3275 41.9387 75.5966 41.2849C75.8657 40.631 76.0028 39.9301 76 39.2228C76 37.7933 75.4383 36.4395 74.424 35.422ZM42.6946 65.9457H33.3057V48.7919H42.6946V65.9457ZM60.961 38.5585V65.9457H48.0597V46.7738C48.0597 44.9155 46.5591 43.4103 44.7065 43.4103H31.2938C29.4412 43.4103 27.9406 44.9155 27.9406 46.7738V65.9457H15.0393V38.5585H6.99171L38.0085 7.47137L39.945 9.41379L69.017 38.5585H60.961Z" fill="#107ADC"/>
</svg>
