<svg width="75" height="75" viewBox="0 0 75 75" fill="none" xmlns="http://www.w3.org/2000/svg">
<path d="M27.6313 37.3422C27.6313 36.772 27.7548 36.2086 27.9933 35.6908C28.2318 35.1729 28.5796 34.7128 29.0129 34.3422L40.1643 24.7856C40.5218 24.4798 40.9767 24.3118 41.4472 24.3118C41.9176 24.3118 42.3726 24.4798 42.7301 24.7856L53.8854 34.3461C54.3174 34.7167 54.6643 35.1763 54.9021 35.6934C55.1398 36.2106 55.263 36.773 55.263 37.3422V49.3422C55.263 49.8657 55.0551 50.3677 54.6849 50.7379C54.3148 51.108 53.8128 51.3159 53.2893 51.3159H46.3814C46.1197 51.3159 45.8687 51.212 45.6836 51.0269C45.4985 50.8418 45.3946 50.5908 45.3946 50.3291V45.3949C45.3946 44.8714 45.1866 44.3694 44.8165 43.9993C44.4463 43.6291 43.9443 43.4212 43.4209 43.4212H39.4735C38.95 43.4212 38.448 43.6291 38.0779 43.9993C37.7077 44.3694 37.4998 44.8714 37.4998 45.3949V50.3291C37.4998 50.5908 37.3958 50.8418 37.2108 51.0269C37.0257 51.212 36.7747 51.3159 36.513 51.3159H29.605C29.0816 51.3159 28.5796 51.108 28.2094 50.7379C27.8393 50.3677 27.6313 49.8657 27.6313 49.3422V37.3422Z" fill="#1B213A"/>
<path d="M15.7895 71.1867V60.1972C18.2645 62.0564 21.3395 63.1578 24.6711 63.1578H58.2239C62.1498 63.1578 65.9149 61.5982 68.691 58.8222C71.467 56.0461 73.0266 52.281 73.0266 48.3551V17.0642C74.0317 15.9247 74.6866 14.5194 74.9128 13.0169C75.1389 11.5144 74.9267 9.97856 74.3016 8.5937C73.6764 7.20883 72.665 6.03378 71.3885 5.20955C70.1121 4.38533 68.6249 3.94695 67.1055 3.94704H14.7316C13.8626 2.44206 12.5213 1.26587 10.9158 0.600874C9.31019 -0.0641261 7.53005 -0.180776 5.85142 0.269017C4.1728 0.71881 2.68948 1.70991 1.63152 3.08861C0.573564 4.46731 7.64588e-05 6.15658 0 7.89442V71.1867C0 73.2946 1.70922 74.9999 3.81317 74.9999H11.9764C12.9877 74.9999 13.9576 74.5982 14.6727 73.8831C15.3878 73.1679 15.7895 72.1981 15.7895 71.1867ZM7.89476 5.92073C8.34976 5.92064 8.79082 6.07775 9.14328 6.36548C9.49575 6.65321 9.73798 7.05388 9.82898 7.49968L10.3106 9.86811H67.1055C67.629 9.86811 68.131 10.0761 68.5011 10.4462C68.8712 10.8163 69.0792 11.3183 69.0792 11.8418C69.0792 12.3653 68.8712 12.8673 68.5011 13.2374C68.131 13.6075 67.629 13.8155 67.1055 13.8155H9.86845V69.0788H5.92107V7.89442C5.92107 7.37096 6.12901 6.86895 6.49915 6.49881C6.86929 6.12867 7.37131 5.92073 7.89476 5.92073ZM24.6711 57.2367C22.3156 57.2367 20.0565 56.301 18.3909 54.6353C16.7253 52.9697 15.7895 50.7106 15.7895 48.3551V19.7366H67.1055V48.3551C67.1055 49.5214 66.8758 50.6764 66.4294 51.7539C65.9831 52.8315 65.3289 53.8106 64.5041 54.6353C63.6794 55.4601 62.7003 56.1143 61.6227 56.5606C60.5452 57.007 59.3902 57.2367 58.2239 57.2367H24.6711Z" fill="#1B213A"/>
</svg>
