<svg width="79" height="73" viewBox="0 0 79 73" fill="none" xmlns="http://www.w3.org/2000/svg">
<path fill-rule="evenodd" clip-rule="evenodd" d="M7.84497 64.292V30.2969H13.075V64.292C13.075 64.9856 13.3505 65.6507 13.8409 66.1411C14.3313 66.6315 14.9965 66.907 15.69 66.907H62.7602C63.4538 66.907 64.1189 66.6315 64.6093 66.1411C65.0997 65.6507 65.3752 64.9856 65.3752 64.292V30.2969H70.6053V64.292C70.6053 66.3727 69.7787 68.3681 68.3075 69.8393C66.8363 71.3105 64.8409 72.1371 62.7602 72.1371H15.69C13.6094 72.1371 11.614 71.3105 10.1427 69.8393C8.6715 68.3681 7.84497 66.3727 7.84497 64.292ZM65.3752 6.76174V25.0668L54.9152 14.6068V6.76174C54.9152 6.0682 55.1907 5.40306 55.6811 4.91265C56.1715 4.42224 56.8367 4.14673 57.5302 4.14673H62.7602C63.4538 4.14673 64.1189 4.42224 64.6093 4.91265C65.0997 5.40306 65.3752 6.0682 65.3752 6.76174Z" fill="#019595"/>
<path fill-rule="evenodd" clip-rule="evenodd" d="M35.5309 1.53128C36.5116 0.550802 37.8417 0 39.2285 0C40.6153 0 41.9453 0.550802 42.9261 1.53128L77.6901 36.29C78.1811 36.7811 78.457 37.447 78.457 38.1415C78.457 38.8359 78.1811 39.5019 77.6901 39.9929C77.1991 40.4839 76.5331 40.7598 75.8387 40.7598C75.1442 40.7598 74.4783 40.4839 73.9872 39.9929L39.2285 5.22891L4.46974 39.9929C3.97871 40.4839 3.31274 40.7598 2.61832 40.7598C1.9239 40.7598 1.25792 40.4839 0.766887 39.9929C0.275858 39.5019 0 38.8359 0 38.1415C0 37.447 0.275858 36.7811 0.766887 36.29L35.5309 1.53128Z" fill="#019595"/>
</svg>
