<svg width="151" height="78" viewBox="0 0 151 78" fill="none" xmlns="http://www.w3.org/2000/svg">
<g filter="url(#filter0_d_523_7855)">
<rect x="12" y="10" width="127" height="48" rx="6" fill="white"/>
</g>
<path d="M57.432 39V28.328H55.56V32.696H50.008V28.328H48.136V39H50.008V34.344H55.56V39H57.432ZM60.4825 30.328C61.0585 30.328 61.5225 29.864 61.5225 29.288C61.5225 28.712 61.0585 28.248 60.4825 28.248C59.9225 28.248 59.4425 28.712 59.4425 29.288C59.4425 29.864 59.9225 30.328 60.4825 30.328ZM61.3305 39V31.272H59.6505V39H61.3305ZM65.1899 39V28.328H63.5099V39H65.1899ZM69.0493 39V28.328H67.3693V39H69.0493ZM73.8686 39.192C75.9486 39.192 77.0846 38.152 77.0846 36.792C77.0846 33.72 72.4126 34.744 72.4126 33.368C72.4126 32.824 72.9726 32.424 73.8526 32.424C74.8126 32.424 75.6766 32.824 76.1406 33.352L76.8446 32.168C76.1406 31.544 75.1486 31.08 73.8366 31.08C71.8846 31.08 70.7966 32.168 70.7966 33.432C70.7966 36.392 75.4686 35.304 75.4686 36.824C75.4686 37.432 74.9566 37.864 73.9486 37.864C72.9406 37.864 71.8686 37.336 71.3246 36.776L70.5566 37.992C71.3566 38.776 72.5566 39.192 73.8686 39.192ZM79.6075 30.328C80.1835 30.328 80.6475 29.864 80.6475 29.288C80.6475 28.712 80.1835 28.248 79.6075 28.248C79.0475 28.248 78.5675 28.712 78.5675 29.288C78.5675 29.864 79.0475 30.328 79.6075 30.328ZM80.4555 39V31.272H78.7755V39H80.4555ZM89.7549 39V28.328H88.0749V32.344C87.4509 31.528 86.5549 31.08 85.5949 31.08C83.5949 31.08 82.1549 32.648 82.1549 35.144C82.1549 37.688 83.6109 39.192 85.5949 39.192C86.5869 39.192 87.4829 38.712 88.0749 37.944V39H89.7549ZM86.0749 37.704C84.7469 37.704 83.8989 36.632 83.8989 35.144C83.8989 33.64 84.7469 32.568 86.0749 32.568C86.8749 32.568 87.6909 33.032 88.0749 33.608V36.68C87.6909 37.256 86.8749 37.704 86.0749 37.704ZM95.4998 39.192C96.7318 39.192 97.8678 38.808 98.6358 38.072L97.8678 36.968C97.3238 37.512 96.4278 37.816 95.6758 37.816C94.2198 37.816 93.3398 36.856 93.2118 35.688H99.1798V35.288C99.1798 32.856 97.6918 31.08 95.3718 31.08C93.0838 31.08 91.4518 32.888 91.4518 35.128C91.4518 37.576 93.1798 39.192 95.4998 39.192ZM97.5478 34.504H93.1957C93.2758 33.56 93.9318 32.456 95.3718 32.456C96.8918 32.456 97.5158 33.592 97.5478 34.504Z" fill="black"/>
<g filter="url(#filter1_d_523_7855)">
<path d="M74.5 70L65 56H91L74.5 70Z" fill="white"/>
</g>
<defs>
<filter id="filter0_d_523_7855" x="0" y="0" width="151" height="72" filterUnits="userSpaceOnUse" color-interpolation-filters="sRGB">
<feFlood flood-opacity="0" result="BackgroundImageFix"/>
<feColorMatrix in="SourceAlpha" type="matrix" values="0 0 0 0 0 0 0 0 0 0 0 0 0 0 0 0 0 0 127 0" result="hardAlpha"/>
<feOffset dy="2"/>
<feGaussianBlur stdDeviation="6"/>
<feComposite in2="hardAlpha" operator="out"/>
<feColorMatrix type="matrix" values="0 0 0 0 0 0 0 0 0 0 0 0 0 0 0 0 0 0 0.25 0"/>
<feBlend mode="normal" in2="BackgroundImageFix" result="effect1_dropShadow_523_7855"/>
<feBlend mode="normal" in="SourceGraphic" in2="effect1_dropShadow_523_7855" result="shape"/>
</filter>
<filter id="filter1_d_523_7855" x="61" y="56" width="34" height="22" filterUnits="userSpaceOnUse" color-interpolation-filters="sRGB">
<feFlood flood-opacity="0" result="BackgroundImageFix"/>
<feColorMatrix in="SourceAlpha" type="matrix" values="0 0 0 0 0 0 0 0 0 0 0 0 0 0 0 0 0 0 127 0" result="hardAlpha"/>
<feOffset dy="4"/>
<feGaussianBlur stdDeviation="2"/>
<feComposite in2="hardAlpha" operator="out"/>
<feColorMatrix type="matrix" values="0 0 0 0 0 0 0 0 0 0 0 0 0 0 0 0 0 0 0.12 0"/>
<feBlend mode="normal" in2="BackgroundImageFix" result="effect1_dropShadow_523_7855"/>
<feBlend mode="normal" in="SourceGraphic" in2="effect1_dropShadow_523_7855" result="shape"/>
</filter>
</defs>
</svg>
