<svg width="151" height="78" viewBox="0 0 151 78" fill="none" xmlns="http://www.w3.org/2000/svg">
<g filter="url(#filter0_d_523_7845)">
<rect x="12" y="10" width="127" height="48" rx="6" fill="white"/>
</g>
<path d="M40.552 39V29.976H43.784V28.328H35.448V29.976H38.68V39H40.552ZM52.2344 39V33.528C52.2344 31.944 51.4024 31.08 49.7384 31.08C48.5224 31.08 47.5144 31.72 47.0024 32.328V28.328H45.3224V39H47.0024V33.608C47.4024 33.08 48.1384 32.568 48.9864 32.568C49.9304 32.568 50.5544 32.936 50.5544 34.136V39H52.2344ZM57.9841 39.192C59.2161 39.192 60.3521 38.808 61.1201 38.072L60.3521 36.968C59.8081 37.512 58.9121 37.816 58.1601 37.816C56.7041 37.816 55.8241 36.856 55.6961 35.688H61.6641V35.288C61.6641 32.856 60.1761 31.08 57.8561 31.08C55.5681 31.08 53.9361 32.888 53.9361 35.128C53.9361 37.576 55.6641 39.192 57.9841 39.192ZM60.0321 34.504H55.6801C55.7601 33.56 56.4161 32.456 57.8561 32.456C59.3761 32.456 60.0001 33.592 60.0321 34.504ZM76.7758 39V28.328H74.9038V32.696H69.3518V28.328H67.4798V39H69.3518V34.344H74.9038V39H76.7758ZM82.4823 39.192C84.9623 39.192 86.4663 37.352 86.4663 35.128C86.4663 32.92 84.9623 31.08 82.4823 31.08C80.0343 31.08 78.5143 32.92 78.5143 35.128C78.5143 37.352 80.0343 39.192 82.4823 39.192ZM82.4823 37.704C81.0583 37.704 80.2582 36.504 80.2582 35.128C80.2582 33.768 81.0583 32.568 82.4823 32.568C83.9223 32.568 84.7223 33.768 84.7223 35.128C84.7223 36.504 83.9223 37.704 82.4823 37.704ZM89.8461 39V28.328H88.1661V39H89.8461ZM93.7055 39V28.328H92.0255V39H93.7055ZM96.7169 30.328C97.2929 30.328 97.7569 29.864 97.7569 29.288C97.7569 28.712 97.2929 28.248 96.7169 28.248C96.1569 28.248 95.6769 28.712 95.6769 29.288C95.6769 29.864 96.1569 30.328 96.7169 30.328ZM97.5649 39V31.272H95.8849V39H97.5649ZM103.312 39.192C104.544 39.192 105.68 38.808 106.448 38.072L105.68 36.968C105.136 37.512 104.24 37.816 103.488 37.816C102.032 37.816 101.152 36.856 101.024 35.688H106.992V35.288C106.992 32.856 105.504 31.08 103.184 31.08C100.896 31.08 99.2643 32.888 99.2643 35.128C99.2643 37.576 100.992 39.192 103.312 39.192ZM105.36 34.504H101.008C101.088 33.56 101.744 32.456 103.184 32.456C104.704 32.456 105.328 33.592 105.36 34.504ZM111.291 39.192C113.371 39.192 114.507 38.152 114.507 36.792C114.507 33.72 109.835 34.744 109.835 33.368C109.835 32.824 110.395 32.424 111.275 32.424C112.235 32.424 113.099 32.824 113.563 33.352L114.267 32.168C113.563 31.544 112.571 31.08 111.259 31.08C109.307 31.08 108.219 32.168 108.219 33.432C108.219 36.392 112.891 35.304 112.891 36.824C112.891 37.432 112.379 37.864 111.371 37.864C110.363 37.864 109.291 37.336 108.747 36.776L107.979 37.992C108.779 38.776 109.979 39.192 111.291 39.192Z" fill="black"/>
<g filter="url(#filter1_d_523_7845)">
<path d="M74.5 70L65 56H91L74.5 70Z" fill="white"/>
</g>
<defs>
<filter id="filter0_d_523_7845" x="0" y="0" width="151" height="72" filterUnits="userSpaceOnUse" color-interpolation-filters="sRGB">
<feFlood flood-opacity="0" result="BackgroundImageFix"/>
<feColorMatrix in="SourceAlpha" type="matrix" values="0 0 0 0 0 0 0 0 0 0 0 0 0 0 0 0 0 0 127 0" result="hardAlpha"/>
<feOffset dy="2"/>
<feGaussianBlur stdDeviation="6"/>
<feComposite in2="hardAlpha" operator="out"/>
<feColorMatrix type="matrix" values="0 0 0 0 0 0 0 0 0 0 0 0 0 0 0 0 0 0 0.25 0"/>
<feBlend mode="normal" in2="BackgroundImageFix" result="effect1_dropShadow_523_7845"/>
<feBlend mode="normal" in="SourceGraphic" in2="effect1_dropShadow_523_7845" result="shape"/>
</filter>
<filter id="filter1_d_523_7845" x="61" y="56" width="34" height="22" filterUnits="userSpaceOnUse" color-interpolation-filters="sRGB">
<feFlood flood-opacity="0" result="BackgroundImageFix"/>
<feColorMatrix in="SourceAlpha" type="matrix" values="0 0 0 0 0 0 0 0 0 0 0 0 0 0 0 0 0 0 127 0" result="hardAlpha"/>
<feOffset dy="4"/>
<feGaussianBlur stdDeviation="2"/>
<feComposite in2="hardAlpha" operator="out"/>
<feColorMatrix type="matrix" values="0 0 0 0 0 0 0 0 0 0 0 0 0 0 0 0 0 0 0.12 0"/>
<feBlend mode="normal" in2="BackgroundImageFix" result="effect1_dropShadow_523_7845"/>
<feBlend mode="normal" in="SourceGraphic" in2="effect1_dropShadow_523_7845" result="shape"/>
</filter>
</defs>
</svg>
