<svg width="28" height="38" viewBox="0 0 28 38" fill="none" xmlns="http://www.w3.org/2000/svg">
<path d="M13.6237 0C10.0118 0.00457403 6.54902 1.54681 3.99501 4.28839C1.44099 7.02998 0.00427558 10.7471 1.44942e-05 14.6242C-0.00431152 17.7927 0.959842 20.8752 2.74457 23.3988C2.74457 23.3988 3.11613 23.9239 3.17681 23.9997L13.6237 37.2253L24.0756 23.9931C24.1301 23.9226 24.5029 23.3988 24.5029 23.3988L24.5041 23.3948C26.2879 20.8723 27.2516 17.7912 27.2474 14.6242C27.2431 10.7471 25.8064 7.02998 23.2524 4.28839C20.6984 1.54681 17.2356 0.00457403 13.6237 0ZM13.6237 19.9422C12.6439 19.9422 11.6861 19.6303 10.8714 19.0459C10.0567 18.4616 9.42171 17.631 9.04675 16.6593C8.67178 15.6876 8.57368 14.6183 8.76483 13.5868C8.95598 12.5552 9.42781 11.6076 10.1207 10.8639C10.8135 10.1202 11.6962 9.61371 12.6572 9.40852C13.6182 9.20333 14.6143 9.30864 15.5196 9.71114C16.4248 10.1136 17.1985 10.7952 17.7429 11.6698C18.2872 12.5443 18.5778 13.5725 18.5778 14.6242C18.5761 16.0341 18.0537 17.3857 17.125 18.3826C16.1962 19.3795 14.9371 19.9404 13.6237 19.9422Z" fill="#1B213A"/>
</svg>
