<svg width="151" height="78" viewBox="0 0 151 78" fill="none" xmlns="http://www.w3.org/2000/svg">
<g filter="url(#filter0_d_523_7865)">
<rect x="12" y="10" width="127" height="48" rx="6" fill="white"/>
</g>
<path d="M48.112 39.192C51.312 39.192 53.568 36.856 53.568 33.672C53.568 30.488 51.312 28.152 48.112 28.152C44.912 28.152 42.656 30.488 42.656 33.672C42.656 36.856 44.912 39.192 48.112 39.192ZM48.112 37.528C45.952 37.528 44.576 35.864 44.576 33.672C44.576 31.464 45.952 29.816 48.112 29.816C50.256 29.816 51.648 31.464 51.648 33.672C51.648 35.864 50.256 37.528 48.112 37.528ZM61.7224 39V33.88C61.7224 31.8 60.2184 31.08 58.5064 31.08C57.2744 31.08 56.1544 31.48 55.2584 32.328L55.9464 33.496C56.6184 32.84 57.3704 32.52 58.2344 32.52C59.3064 32.52 60.0424 33.064 60.0424 33.96V35.112C59.4824 34.456 58.5864 34.12 57.5464 34.12C56.2824 34.12 54.8584 34.856 54.8584 36.632C54.8584 38.344 56.2824 39.192 57.5464 39.192C58.5704 39.192 59.4664 38.824 60.0424 38.168V39H61.7224ZM58.2024 38.04C57.2584 38.04 56.5544 37.496 56.5544 36.664C56.5544 35.816 57.2584 35.272 58.2024 35.272C58.9384 35.272 59.6584 35.544 60.0424 36.072V37.24C59.6584 37.768 58.9384 38.04 58.2024 38.04ZM71.1325 39L67.8525 34.776L71.0685 31.272H68.9885L65.5805 35V28.328H63.9005V39H65.5805V36.92L66.6525 35.816L69.0205 39H71.1325ZM81.8718 39C83.8718 39 84.9758 37.768 84.9758 36.12C84.9758 34.808 84.0478 33.672 82.9118 33.496C83.9038 33.288 84.7678 32.392 84.7678 31.048C84.7678 29.544 83.6798 28.328 81.7278 28.328H76.4798V39H81.8718ZM81.3438 32.744H78.3518V29.976H81.3438C82.3038 29.976 82.8478 30.568 82.8478 31.368C82.8478 32.168 82.3038 32.744 81.3438 32.744ZM81.4238 37.352H78.3518V34.392H81.4238C82.4958 34.392 83.0558 35.064 83.0558 35.864C83.0558 36.792 82.4478 37.352 81.4238 37.352ZM93.2068 39V33.88C93.2068 31.8 91.7028 31.08 89.9908 31.08C88.7588 31.08 87.6388 31.48 86.7428 32.328L87.4308 33.496C88.1028 32.84 88.8548 32.52 89.7188 32.52C90.7908 32.52 91.5268 33.064 91.5268 33.96V35.112C90.9668 34.456 90.0708 34.12 89.0308 34.12C87.7668 34.12 86.3428 34.856 86.3428 36.632C86.3428 38.344 87.7668 39.192 89.0308 39.192C90.0548 39.192 90.9508 38.824 91.5268 38.168V39H93.2068ZM89.6868 38.04C88.7428 38.04 88.0388 37.496 88.0388 36.664C88.0388 35.816 88.7428 35.272 89.6868 35.272C90.4227 35.272 91.1428 35.544 91.5268 36.072V37.24C91.1428 37.768 90.4227 38.04 89.6868 38.04ZM97.0649 39V33.736C97.4009 33.192 98.3449 32.712 99.0489 32.712C99.2569 32.712 99.4329 32.728 99.5769 32.76V31.096C98.5689 31.096 97.6409 31.672 97.0649 32.408V31.272H95.3849V39H97.0649ZM107.828 39V33.56C107.828 31.976 106.996 31.08 105.332 31.08C104.116 31.08 103.124 31.72 102.612 32.328V31.272H100.932V39H102.612V33.608C102.996 33.08 103.732 32.568 104.596 32.568C105.54 32.568 106.148 32.968 106.148 34.168V39H107.828Z" fill="black"/>
<g filter="url(#filter1_d_523_7865)">
<path d="M74.5 70L65 56H91L74.5 70Z" fill="white"/>
</g>
<defs>
<filter id="filter0_d_523_7865" x="0" y="0" width="151" height="72" filterUnits="userSpaceOnUse" color-interpolation-filters="sRGB">
<feFlood flood-opacity="0" result="BackgroundImageFix"/>
<feColorMatrix in="SourceAlpha" type="matrix" values="0 0 0 0 0 0 0 0 0 0 0 0 0 0 0 0 0 0 127 0" result="hardAlpha"/>
<feOffset dy="2"/>
<feGaussianBlur stdDeviation="6"/>
<feComposite in2="hardAlpha" operator="out"/>
<feColorMatrix type="matrix" values="0 0 0 0 0 0 0 0 0 0 0 0 0 0 0 0 0 0 0.25 0"/>
<feBlend mode="normal" in2="BackgroundImageFix" result="effect1_dropShadow_523_7865"/>
<feBlend mode="normal" in="SourceGraphic" in2="effect1_dropShadow_523_7865" result="shape"/>
</filter>
<filter id="filter1_d_523_7865" x="61" y="56" width="34" height="22" filterUnits="userSpaceOnUse" color-interpolation-filters="sRGB">
<feFlood flood-opacity="0" result="BackgroundImageFix"/>
<feColorMatrix in="SourceAlpha" type="matrix" values="0 0 0 0 0 0 0 0 0 0 0 0 0 0 0 0 0 0 127 0" result="hardAlpha"/>
<feOffset dy="4"/>
<feGaussianBlur stdDeviation="2"/>
<feComposite in2="hardAlpha" operator="out"/>
<feColorMatrix type="matrix" values="0 0 0 0 0 0 0 0 0 0 0 0 0 0 0 0 0 0 0.12 0"/>
<feBlend mode="normal" in2="BackgroundImageFix" result="effect1_dropShadow_523_7865"/>
<feBlend mode="normal" in="SourceGraphic" in2="effect1_dropShadow_523_7865" result="shape"/>
</filter>
</defs>
</svg>
