<svg width="151" height="78" viewBox="0 0 151 78" fill="none" xmlns="http://www.w3.org/2000/svg">
<g filter="url(#filter0_d_523_7875)">
<rect x="12" y="10" width="127" height="48" rx="6" fill="white"/>
</g>
<path d="M39.784 39.192C42.664 39.192 43.912 37.672 43.912 35.896C43.912 31.912 37.704 33.144 37.704 31.16C37.704 30.36 38.408 29.832 39.512 29.832C40.632 29.832 41.768 30.216 42.6 31.048L43.672 29.656C42.68 28.696 41.336 28.168 39.672 28.168C37.336 28.168 35.784 29.528 35.784 31.288C35.784 35.224 42.008 33.832 42.008 36.072C42.008 36.776 41.4 37.528 39.864 37.528C38.376 37.528 37.224 36.84 36.488 36.056L35.448 37.496C36.392 38.504 37.816 39.192 39.784 39.192ZM49.748 39.192C51.748 39.192 53.172 37.672 53.172 35.128C53.172 32.584 51.748 31.08 49.748 31.08C48.74 31.08 47.844 31.56 47.268 32.328V31.272H45.588V41.944H47.268V37.928C47.892 38.76 48.772 39.192 49.748 39.192ZM49.252 37.704C48.468 37.704 47.636 37.224 47.268 36.664V33.608C47.636 33.032 48.468 32.568 49.252 32.568C50.58 32.568 51.428 33.64 51.428 35.128C51.428 36.632 50.58 37.704 49.252 37.704ZM56.518 39V33.736C56.854 33.192 57.798 32.712 58.502 32.712C58.71 32.712 58.886 32.728 59.03 32.76V31.096C58.022 31.096 57.094 31.672 56.518 32.408V31.272H54.838V39H56.518ZM61.2169 30.328C61.7929 30.328 62.2569 29.864 62.2569 29.288C62.2569 28.712 61.7929 28.248 61.2169 28.248C60.6569 28.248 60.1769 28.712 60.1769 29.288C60.1769 29.864 60.6569 30.328 61.2169 30.328ZM62.0649 39V31.272H60.3849V39H62.0649ZM71.1403 39V33.56C71.1403 31.976 70.3083 31.08 68.6443 31.08C67.4283 31.08 66.4363 31.72 65.9243 32.328V31.272H64.2443V39H65.9243V33.608C66.3083 33.08 67.0443 32.568 67.9083 32.568C68.8523 32.568 69.4603 32.968 69.4603 34.168V39H71.1403ZM76.4584 42.136C78.3624 42.136 80.4264 41.384 80.4264 38.6V31.272H78.7464V32.344C78.1224 31.528 77.2424 31.08 76.2664 31.08C74.2824 31.08 72.8424 32.552 72.8424 35.048C72.8424 37.592 74.2984 39.016 76.2664 39.016C77.2744 39.016 78.1544 38.504 78.7464 37.736V38.664C78.7464 40.248 77.5624 40.76 76.4584 40.76C75.4344 40.76 74.6344 40.488 74.0104 39.768L73.2264 40.984C74.1704 41.848 75.1464 42.136 76.4584 42.136ZM76.7624 37.528C75.4344 37.528 74.5864 36.536 74.5864 35.048C74.5864 33.56 75.4344 32.568 76.7624 32.568C77.5464 32.568 78.3784 33.032 78.7464 33.608V36.488C78.3784 37.064 77.5464 37.528 76.7624 37.528ZM84.6836 39V32.744H86.2516V31.272H84.6836V30.84C84.6836 29.976 85.0996 29.544 85.7556 29.544C86.0436 29.544 86.2676 29.608 86.4276 29.72L86.7956 28.472C86.4596 28.28 85.9796 28.168 85.4516 28.168C84.0276 28.168 83.0036 29.112 83.0036 30.84V31.272H81.7236V32.744H83.0036V39H84.6836ZM88.3636 30.328C88.9396 30.328 89.4036 29.864 89.4036 29.288C89.4036 28.712 88.9396 28.248 88.3636 28.248C87.8036 28.248 87.3236 28.712 87.3236 29.288C87.3236 29.864 87.8036 30.328 88.3636 30.328ZM89.2116 39V31.272H87.5316V39H89.2116ZM94.9529 39.192C96.1849 39.192 97.3209 38.808 98.0889 38.072L97.3209 36.968C96.7769 37.512 95.8809 37.816 95.1289 37.816C93.6729 37.816 92.7929 36.856 92.6649 35.688H98.6329V35.288C98.6329 32.856 97.1449 31.08 94.8249 31.08C92.5369 31.08 90.9049 32.888 90.9049 35.128C90.9049 37.576 92.6329 39.192 94.9529 39.192ZM97.0009 34.504H92.6489C92.7289 33.56 93.3849 32.456 94.8249 32.456C96.3449 32.456 96.9689 33.592 97.0009 34.504ZM101.971 39V28.328H100.291V39H101.971ZM111.271 39V28.328H109.591V32.344C108.967 31.528 108.071 31.08 107.111 31.08C105.111 31.08 103.671 32.648 103.671 35.144C103.671 37.688 105.127 39.192 107.111 39.192C108.103 39.192 108.999 38.712 109.591 37.944V39H111.271ZM107.591 37.704C106.263 37.704 105.414 36.632 105.414 35.144C105.414 33.64 106.263 32.568 107.591 32.568C108.391 32.568 109.207 33.032 109.591 33.608V36.68C109.207 37.256 108.391 37.704 107.591 37.704Z" fill="black"/>
<g filter="url(#filter1_d_523_7875)">
<path d="M74.5 70L65 56H91L74.5 70Z" fill="white"/>
</g>
<defs>
<filter id="filter0_d_523_7875" x="0" y="0" width="151" height="72" filterUnits="userSpaceOnUse" color-interpolation-filters="sRGB">
<feFlood flood-opacity="0" result="BackgroundImageFix"/>
<feColorMatrix in="SourceAlpha" type="matrix" values="0 0 0 0 0 0 0 0 0 0 0 0 0 0 0 0 0 0 127 0" result="hardAlpha"/>
<feOffset dy="2"/>
<feGaussianBlur stdDeviation="6"/>
<feComposite in2="hardAlpha" operator="out"/>
<feColorMatrix type="matrix" values="0 0 0 0 0 0 0 0 0 0 0 0 0 0 0 0 0 0 0.25 0"/>
<feBlend mode="normal" in2="BackgroundImageFix" result="effect1_dropShadow_523_7875"/>
<feBlend mode="normal" in="SourceGraphic" in2="effect1_dropShadow_523_7875" result="shape"/>
</filter>
<filter id="filter1_d_523_7875" x="61" y="56" width="34" height="22" filterUnits="userSpaceOnUse" color-interpolation-filters="sRGB">
<feFlood flood-opacity="0" result="BackgroundImageFix"/>
<feColorMatrix in="SourceAlpha" type="matrix" values="0 0 0 0 0 0 0 0 0 0 0 0 0 0 0 0 0 0 127 0" result="hardAlpha"/>
<feOffset dy="4"/>
<feGaussianBlur stdDeviation="2"/>
<feComposite in2="hardAlpha" operator="out"/>
<feColorMatrix type="matrix" values="0 0 0 0 0 0 0 0 0 0 0 0 0 0 0 0 0 0 0.12 0"/>
<feBlend mode="normal" in2="BackgroundImageFix" result="effect1_dropShadow_523_7875"/>
<feBlend mode="normal" in="SourceGraphic" in2="effect1_dropShadow_523_7875" result="shape"/>
</filter>
</defs>
</svg>
