<svg width="151" height="78" viewBox="0 0 151 78" fill="none" xmlns="http://www.w3.org/2000/svg">
<g filter="url(#filter0_d_523_7905)">
<rect x="12" y="10" width="127" height="48" rx="6" fill="white"/>
</g>
<path d="M41.784 38.192C44.664 38.192 45.912 36.672 45.912 34.896C45.912 30.912 39.704 32.144 39.704 30.16C39.704 29.36 40.408 28.832 41.512 28.832C42.632 28.832 43.768 29.216 44.6 30.048L45.672 28.656C44.68 27.696 43.336 27.168 41.672 27.168C39.336 27.168 37.784 28.528 37.784 30.288C37.784 34.224 44.008 32.832 44.008 35.072C44.008 35.776 43.4 36.528 41.864 36.528C40.376 36.528 39.224 35.84 38.488 35.056L37.448 36.496C38.392 37.504 39.816 38.192 41.784 38.192ZM54.484 38V30.272H52.804V35.696C52.404 36.224 51.668 36.704 50.82 36.704C49.876 36.704 49.268 36.336 49.268 35.136V30.272H47.588V35.744C47.588 37.328 48.404 38.192 50.068 38.192C51.284 38.192 52.244 37.6 52.804 36.976V38H54.484ZM63.5621 38V32.56C63.5621 30.976 62.7301 30.08 61.0661 30.08C59.8501 30.08 58.8581 30.72 58.3461 31.328V30.272H56.6661V38H58.3461V32.608C58.7301 32.08 59.4661 31.568 60.3301 31.568C61.2741 31.568 61.8821 31.968 61.8821 33.168V38H63.5621ZM72.6403 38V32.56C72.6403 30.976 71.8083 30.08 70.1443 30.08C68.9283 30.08 67.9363 30.72 67.4243 31.328V30.272H65.7443V38H67.4243V32.608C67.8083 32.08 68.5443 31.568 69.4083 31.568C70.3523 31.568 70.9603 31.968 70.9603 33.168V38H72.6403ZM74.4864 41.024C74.7264 41.088 75.1904 41.136 75.4304 41.136C76.6304 41.12 77.5584 40.704 78.0864 39.392L81.8144 30.272H80.0064L77.7504 36.064L75.4944 30.272H73.7024L76.8704 38.096L76.4864 38.976C76.2624 39.488 75.9104 39.648 75.3824 39.648C75.1904 39.648 74.9184 39.6 74.7424 39.52L74.4864 41.024ZM85.5093 38.192C87.5893 38.192 88.7253 37.152 88.7253 35.792C88.7253 32.72 84.0533 33.744 84.0533 32.368C84.0533 31.824 84.6133 31.424 85.4933 31.424C86.4533 31.424 87.3173 31.824 87.7813 32.352L88.4853 31.168C87.7813 30.544 86.7893 30.08 85.4773 30.08C83.5253 30.08 82.4373 31.168 82.4373 32.432C82.4373 35.392 87.1093 34.304 87.1093 35.824C87.1093 36.432 86.5973 36.864 85.5893 36.864C84.5813 36.864 83.5093 36.336 82.9653 35.776L82.1973 36.992C82.9973 37.776 84.1973 38.192 85.5093 38.192ZM91.2481 29.328C91.8241 29.328 92.2881 28.864 92.2881 28.288C92.2881 27.712 91.8241 27.248 91.2481 27.248C90.6881 27.248 90.2081 27.712 90.2081 28.288C90.2081 28.864 90.6881 29.328 91.2481 29.328ZM92.0961 38V30.272H90.4161V38H92.0961ZM101.396 38V27.328H99.7155V31.344C99.0915 30.528 98.1955 30.08 97.2355 30.08C95.2355 30.08 93.7955 31.648 93.7955 34.144C93.7955 36.688 95.2515 38.192 97.2355 38.192C98.2275 38.192 99.1235 37.712 99.7155 36.944V38H101.396ZM97.7155 36.704C96.3875 36.704 95.5395 35.632 95.5395 34.144C95.5395 32.64 96.3875 31.568 97.7155 31.568C98.5155 31.568 99.3315 32.032 99.7155 32.608V35.68C99.3315 36.256 98.5155 36.704 97.7155 36.704ZM107.14 38.192C108.372 38.192 109.508 37.808 110.276 37.072L109.508 35.968C108.964 36.512 108.068 36.816 107.316 36.816C105.86 36.816 104.98 35.856 104.852 34.688H110.82V34.288C110.82 31.856 109.332 30.08 107.012 30.08C104.724 30.08 103.092 31.888 103.092 34.128C103.092 36.576 104.82 38.192 107.14 38.192ZM109.188 33.504H104.836C104.916 32.56 105.572 31.456 107.012 31.456C108.532 31.456 109.156 32.592 109.188 33.504Z" fill="black"/>
<g filter="url(#filter1_d_523_7905)">
<path d="M74.5 70L65 56H91L74.5 70Z" fill="white"/>
</g>
<defs>
<filter id="filter0_d_523_7905" x="0" y="0" width="151" height="72" filterUnits="userSpaceOnUse" color-interpolation-filters="sRGB">
<feFlood flood-opacity="0" result="BackgroundImageFix"/>
<feColorMatrix in="SourceAlpha" type="matrix" values="0 0 0 0 0 0 0 0 0 0 0 0 0 0 0 0 0 0 127 0" result="hardAlpha"/>
<feOffset dy="2"/>
<feGaussianBlur stdDeviation="6"/>
<feComposite in2="hardAlpha" operator="out"/>
<feColorMatrix type="matrix" values="0 0 0 0 0 0 0 0 0 0 0 0 0 0 0 0 0 0 0.25 0"/>
<feBlend mode="normal" in2="BackgroundImageFix" result="effect1_dropShadow_523_7905"/>
<feBlend mode="normal" in="SourceGraphic" in2="effect1_dropShadow_523_7905" result="shape"/>
</filter>
<filter id="filter1_d_523_7905" x="61" y="56" width="34" height="22" filterUnits="userSpaceOnUse" color-interpolation-filters="sRGB">
<feFlood flood-opacity="0" result="BackgroundImageFix"/>
<feColorMatrix in="SourceAlpha" type="matrix" values="0 0 0 0 0 0 0 0 0 0 0 0 0 0 0 0 0 0 127 0" result="hardAlpha"/>
<feOffset dy="4"/>
<feGaussianBlur stdDeviation="2"/>
<feComposite in2="hardAlpha" operator="out"/>
<feColorMatrix type="matrix" values="0 0 0 0 0 0 0 0 0 0 0 0 0 0 0 0 0 0 0.12 0"/>
<feBlend mode="normal" in2="BackgroundImageFix" result="effect1_dropShadow_523_7905"/>
<feBlend mode="normal" in="SourceGraphic" in2="effect1_dropShadow_523_7905" result="shape"/>
</filter>
</defs>
</svg>
