<svg width="151" height="78" viewBox="0 0 151 78" fill="none" xmlns="http://www.w3.org/2000/svg">
<g filter="url(#filter0_d_523_7885)">
<rect x="12" y="10" width="127" height="48" rx="6" fill="white"/>
</g>
<path d="M52.296 39L55.336 28.328H53.24L51.176 36.552L48.968 28.328H47.48L45.272 36.552L43.192 28.328H41.096L44.152 39H46.152L48.216 31.128L50.296 39H52.296ZM59.3885 39.192C61.8685 39.192 63.3725 37.352 63.3725 35.128C63.3725 32.92 61.8685 31.08 59.3885 31.08C56.9405 31.08 55.4205 32.92 55.4205 35.128C55.4205 37.352 56.9405 39.192 59.3885 39.192ZM59.3885 37.704C57.9645 37.704 57.1645 36.504 57.1645 35.128C57.1645 33.768 57.9645 32.568 59.3885 32.568C60.8285 32.568 61.6285 33.768 61.6285 35.128C61.6285 36.504 60.8285 37.704 59.3885 37.704ZM68.5604 39.192C71.0404 39.192 72.5444 37.352 72.5444 35.128C72.5444 32.92 71.0404 31.08 68.5604 31.08C66.1124 31.08 64.5924 32.92 64.5924 35.128C64.5924 37.352 66.1124 39.192 68.5604 39.192ZM68.5604 37.704C67.1364 37.704 66.3364 36.504 66.3364 35.128C66.3364 33.768 67.1364 32.568 68.5604 32.568C70.0004 32.568 70.8004 33.768 70.8004 35.128C70.8004 36.504 70.0004 37.704 68.5604 37.704ZM81.3643 39V28.328H79.6843V32.344C79.0603 31.528 78.1643 31.08 77.2043 31.08C75.2043 31.08 73.7643 32.648 73.7643 35.144C73.7643 37.688 75.2203 39.192 77.2043 39.192C78.1963 39.192 79.0923 38.712 79.6843 37.944V39H81.3643ZM77.6843 37.704C76.3563 37.704 75.5082 36.632 75.5082 35.144C75.5082 33.64 76.3563 32.568 77.6843 32.568C78.4843 32.568 79.3003 33.032 79.6843 33.608V36.68C79.3003 37.256 78.4843 37.704 77.6843 37.704ZM86.1811 39.192C88.2611 39.192 89.3971 38.152 89.3971 36.792C89.3971 33.72 84.7251 34.744 84.7251 33.368C84.7251 32.824 85.2851 32.424 86.1651 32.424C87.1251 32.424 87.9891 32.824 88.4531 33.352L89.1571 32.168C88.4531 31.544 87.4611 31.08 86.1491 31.08C84.1971 31.08 83.1091 32.168 83.1091 33.432C83.1091 36.392 87.7811 35.304 87.7811 36.824C87.7811 37.432 87.2691 37.864 86.2611 37.864C85.2531 37.864 84.1811 37.336 83.6371 36.776L82.8691 37.992C83.6691 38.776 84.8691 39.192 86.1811 39.192ZM91.92 30.328C92.496 30.328 92.96 29.864 92.96 29.288C92.96 28.712 92.496 28.248 91.92 28.248C91.36 28.248 90.88 28.712 90.88 29.288C90.88 29.864 91.36 30.328 91.92 30.328ZM92.768 39V31.272H91.088V39H92.768ZM102.067 39V28.328H100.387V32.344C99.7634 31.528 98.8674 31.08 97.9074 31.08C95.9074 31.08 94.4674 32.648 94.4674 35.144C94.4674 37.688 95.9234 39.192 97.9074 39.192C98.8994 39.192 99.7954 38.712 100.387 37.944V39H102.067ZM98.3874 37.704C97.0594 37.704 96.2114 36.632 96.2114 35.144C96.2114 33.64 97.0594 32.568 98.3874 32.568C99.1874 32.568 100.003 33.032 100.387 33.608V36.68C100.003 37.256 99.1874 37.704 98.3874 37.704ZM107.812 39.192C109.044 39.192 110.18 38.808 110.948 38.072L110.18 36.968C109.636 37.512 108.74 37.816 107.988 37.816C106.532 37.816 105.652 36.856 105.524 35.688H111.492V35.288C111.492 32.856 110.004 31.08 107.684 31.08C105.396 31.08 103.764 32.888 103.764 35.128C103.764 37.576 105.492 39.192 107.812 39.192ZM109.86 34.504H105.508C105.588 33.56 106.244 32.456 107.684 32.456C109.204 32.456 109.828 33.592 109.86 34.504Z" fill="black"/>
<g filter="url(#filter1_d_523_7885)">
<path d="M74.5 70L65 56H91L74.5 70Z" fill="white"/>
</g>
<defs>
<filter id="filter0_d_523_7885" x="0" y="0" width="151" height="72" filterUnits="userSpaceOnUse" color-interpolation-filters="sRGB">
<feFlood flood-opacity="0" result="BackgroundImageFix"/>
<feColorMatrix in="SourceAlpha" type="matrix" values="0 0 0 0 0 0 0 0 0 0 0 0 0 0 0 0 0 0 127 0" result="hardAlpha"/>
<feOffset dy="2"/>
<feGaussianBlur stdDeviation="6"/>
<feComposite in2="hardAlpha" operator="out"/>
<feColorMatrix type="matrix" values="0 0 0 0 0 0 0 0 0 0 0 0 0 0 0 0 0 0 0.25 0"/>
<feBlend mode="normal" in2="BackgroundImageFix" result="effect1_dropShadow_523_7885"/>
<feBlend mode="normal" in="SourceGraphic" in2="effect1_dropShadow_523_7885" result="shape"/>
</filter>
<filter id="filter1_d_523_7885" x="61" y="56" width="34" height="22" filterUnits="userSpaceOnUse" color-interpolation-filters="sRGB">
<feFlood flood-opacity="0" result="BackgroundImageFix"/>
<feColorMatrix in="SourceAlpha" type="matrix" values="0 0 0 0 0 0 0 0 0 0 0 0 0 0 0 0 0 0 127 0" result="hardAlpha"/>
<feOffset dy="4"/>
<feGaussianBlur stdDeviation="2"/>
<feComposite in2="hardAlpha" operator="out"/>
<feColorMatrix type="matrix" values="0 0 0 0 0 0 0 0 0 0 0 0 0 0 0 0 0 0 0.12 0"/>
<feBlend mode="normal" in2="BackgroundImageFix" result="effect1_dropShadow_523_7885"/>
<feBlend mode="normal" in="SourceGraphic" in2="effect1_dropShadow_523_7885" result="shape"/>
</filter>
</defs>
</svg>
